<svg xmlns="http://www.w3.org/2000/svg" width="185.8" height="76" viewBox="0 12 185.8 76" fill="none">
  <path fill-rule="nonzero" d="M6 88 V29 A17 17 0 0 1 23 12 H45 V88 H33 V24 H23 A5 5 0 0 0 18 29 V88 Z M0 38 H24 V50 H0 Z" fill="#2563EB"/>
  <path fill-rule="nonzero" d="M56 12H68V88H56Z M131.11 69 A26.4 26.4 0 1 0 121.65 83.8 L114.27 74.35 A14.4 14.4 0 0 1 92.31 69 Z M92.31 57 A14.4 14.4 0 0 1 118.49 57 Z M141.8 38 L157.78 38 L185.8 88 L169.82 88 Z M169.82 38 L185.8 38 L157.78 88 L141.8 88 Z" fill="#0F172A"/>
</svg>
